<?xml version="1.0" standalone="no"?><!DOCTYPE svg PUBLIC "-//W3C//DTD SVG 1.1//EN" "http://www.w3.org/Graphics/SVG/1.1/DTD/svg11.dtd"><svg t="1730862970400" class="icon" viewBox="0 0 1024 1024" version="1.1" xmlns="http://www.w3.org/2000/svg" p-id="7186" xmlns:xlink="http://www.w3.org/1999/xlink" width="200" height="200"><path d="M512 0C256.853333 0 85.333333 91.91619 85.333333 204.8v614.4C85.333333 932.254476 256.78019 1024 512 1024 767.317333 1024 938.666667 932.254476 938.666667 819.2V204.8C938.666667 91.721143 767.317333 0 512 0z m0 81.92c216.064 0 355.57181 55.125333 355.57181 122.88 0 67.925333-139.50781 122.88-355.57181 122.88-215.966476 0-355.498667-54.954667-355.498667-122.88 0-67.754667 139.53219-122.88 355.498667-122.88z m0 860.16c-215.966476 0-355.498667-55.05219-355.498667-122.88v-87.82019c73.142857 53.077333 198.485333 87.82019 355.498667 87.82019 157.110857 0 282.453333-34.742857 355.57181-87.82019V819.2c0 67.82781-139.50781 122.88-355.57181 122.88z m0-204.8c-215.966476 0-355.498667-55.02781-355.498667-122.88v-87.79581c73.142857 53.150476 198.485333 87.79581 355.498667 87.79581 157.110857 0 282.453333-34.645333 355.57181-87.79581V614.4c0 67.85219-139.50781 122.88-355.57181 122.88z m0-204.8c-215.966476 0-355.498667-55.05219-355.498667-122.88v-87.649524c73.142857 53.00419 198.485333 87.722667 355.498667 87.722667 157.110857 0 282.453333-34.718476 355.57181-87.79581v87.79581c0 67.85219-139.50781 122.88-355.57181 122.88v-0.073143z" fill="#000000" p-id="7187"></path></svg>