<?xml version="1.0" standalone="no"?><!DOCTYPE svg PUBLIC "-//W3C//DTD SVG 1.1//EN" "http://www.w3.org/Graphics/SVG/1.1/DTD/svg11.dtd"><svg t="1730862957451" class="icon" viewBox="0 0 1024 1024" version="1.1" xmlns="http://www.w3.org/2000/svg" p-id="6199" xmlns:xlink="http://www.w3.org/1999/xlink" width="200" height="200"><path d="M492.8 64c236.8 0 409.6 89.6 409.6 204.8v249.6c0 19.2-19.2 32-38.4 32s-32-12.8-32-32V377.6l-12.8 6.4c-102.4 57.6-217.6 83.2-332.8 76.8C371.2 467.2 256 435.2 153.6 384v51.2c0 70.4 160 134.4 339.2 134.4 38.4 0 83.2 0 121.6-6.4 19.2 0 38.4 12.8 38.4 32s-12.8 38.4-32 38.4c-44.8 6.4-89.6 12.8-134.4 12.8-115.2 6.4-230.4-25.6-332.8-76.8v32c0 70.4 160 134.4 339.2 134.4 19.2 0 38.4 12.8 38.4 38.4 0 19.2-12.8 38.4-38.4 38.4-115.2 6.4-230.4-25.6-332.8-76.8l-6.4-19.2v51.2c0 70.4 160 134.4 339.2 134.4h38.4c19.2 0 32 19.2 32 38.4 0 12.8-12.8 32-32 32h-38.4c-230.4 0-403.2-83.2-409.6-198.4v-512C89.6 147.2 268.8 64 492.8 64z m288 544c19.2 0 38.4 12.8 38.4 32v204.8l57.6-57.6c12.8-12.8 38.4-12.8 51.2 0 12.8 12.8 12.8 38.4 0 51.2l-128 128h-6.4l-12.8 6.4c-6.4 0-19.2-6.4-25.6-12.8L640 838.4c-12.8-12.8-12.8-38.4 0-51.2 12.8-12.8 38.4-12.8 51.2 0l57.6 57.6V640c0-19.2 12.8-32 32-32zM492.8 134.4c-179.2 0-339.2 64-339.2 134.4s160 134.4 339.2 134.4 339.2-64 339.2-134.4-160-134.4-339.2-134.4z" fill="#606266" p-id="6200"></path></svg>