<?xml version="1.0" standalone="no"?><!DOCTYPE svg PUBLIC "-//W3C//DTD SVG 1.1//EN" "http://www.w3.org/Graphics/SVG/1.1/DTD/svg11.dtd"><svg t="1730867944411" class="icon" viewBox="0 0 1026 1024" version="1.1" xmlns="http://www.w3.org/2000/svg" p-id="4395" xmlns:xlink="http://www.w3.org/1999/xlink" width="200.390625" height="200"><path d="M932.310774 0.00003a93.816852 93.816852 0 0 1 49.150827 173.775316l-327.575515 201.611085v558.070323a90.555996 90.555996 0 0 1-140.753776 75.356668l-78.152544-52.120696a140.754776 140.754776 0 0 1-62.661229-117.111821V375.328433L44.803019 173.775346A93.816852 93.816852 0 0 1 93.951846 0.00003h838.590918z" p-id="4396"></path><path d="M759.17643 469.203282h211.161663a31.098625 31.098625 0 0 1 34.941455 34.941455 31.098625 31.098625 0 0 1-34.941455 34.941455h-211.160663a31.098625 31.098625 0 0 1-34.942455-34.941455 31.098625 31.098625 0 0 1 35.174445-34.941455zM759.17643 633.428021h211.161663a31.098625 31.098625 0 0 1 34.941455 34.941455 31.098625 31.098625 0 0 1-34.941455 34.940455h-211.160663a31.098625 31.098625 0 0 1-34.942455-34.940455 31.098625 31.098625 0 0 1 35.174445-34.941455zM759.17643 797.593761h211.161663a31.098625 31.098625 0 0 1 34.941455 34.941455 31.098625 31.098625 0 0 1-34.941455 34.940455h-211.160663a31.098625 31.098625 0 0 1-34.942455-34.940455 31.098625 31.098625 0 0 1 35.174445-34.941455z" p-id="4397"></path></svg>